<svg width="64" height="63" viewBox="0 0 64 63" fill="none" xmlns="http://www.w3.org/2000/svg">
<path d="M64.0001 31.4998C64.0001 48.8968 49.6738 62.9999 32.0014 62.9999C24.5845 62.9999 17.757 60.5159 12.3306 56.3468L46.6492 22.5629C48.2872 25.1581 49.2315 28.2188 49.2315 31.4997C49.2315 39.2686 43.9257 45.8176 36.6867 47.8267C35.6067 46.4445 33.9097 45.5537 32.0013 45.5537C28.7387 45.5537 26.0939 48.1573 26.0939 51.3691C26.0939 54.5809 28.7387 57.1845 32.0013 57.1845C34.4438 57.1845 36.5401 55.7253 37.4397 53.6441C47.5942 51.2361 55.1389 42.2353 55.1389 31.4997C55.1389 26.6115 53.5722 22.0796 50.9093 18.3693L57.2417 12.1355C61.4768 17.4774 64.0001 24.1985 64.0001 31.4998Z" fill="#FFAF2E"/>
<path d="M13.0908 44.6306L6.7584 50.8644C2.52335 45.5225 0 38.8014 0 31.5002C0 14.1031 14.3263 0 31.9988 0C39.4156 0 46.2431 2.48403 51.6695 6.65308L17.3509 40.437C15.713 37.8419 14.7687 34.7813 14.7687 31.5002C14.7687 23.7313 20.0744 17.1823 27.3134 15.1732C28.3934 16.5554 30.0904 17.4462 31.9988 17.4462C35.2614 17.4462 37.9063 14.8426 37.9063 11.6308C37.9063 8.41905 35.2614 5.8154 31.9988 5.8154C29.5563 5.8154 27.46 7.27463 26.5605 9.35582C16.4059 11.7639 8.86119 20.7646 8.86119 31.5002C8.86119 36.3882 10.4279 40.9202 13.0908 44.6306Z" fill="#F04148"/>
<ellipse cx="31.9971" cy="11.6309" rx="2.46145" ry="2.42309" fill="#F04148"/>
<ellipse cx="31.9971" cy="51.3699" rx="2.46145" ry="2.42309" fill="#FFAF2E"/>
</svg>
